<?xml version="1.0" standalone="no"?>
<!DOCTYPE svg PUBLIC "-//W3C//DTD SVG 20010904//EN"
 "http://www.w3.org/TR/2001/REC-SVG-20010904/DTD/svg10.dtd">
<svg version="1.0" xmlns="http://www.w3.org/2000/svg"
 width="417.000000pt" height="598.000000pt" viewBox="0 0 417.000000 598.000000"
 preserveAspectRatio="xMidYMid meet">
<metadata>
Created by potrace 1.16, written by Peter Selinger 2001-2019
</metadata>
<g transform="translate(0.000000,598.000000) scale(0.100000,-0.100000)"
fill="#000000" stroke="none">
<path d="M3245 5969 c-405 -33 -683 -149 -793 -331 -46 -78 -67 -182 -53 -274
6 -40 22 -103 36 -140 l24 -69 -22 -17 c-12 -9 -39 -27 -60 -39 l-38 -21 5 34
c12 68 26 277 26 384 0 131 -4 137 -85 137 -62 0 -101 -20 -116 -60 -11 -29
-49 -347 -49 -413 0 -88 2 -86 -120 -94 -244 -14 -400 -90 -570 -274 -196
-212 -301 -426 -475 -967 -143 -443 -208 -588 -445 -991 -345 -585 -420 -748
-481 -1034 -30 -141 -33 -412 -5 -540 90 -418 362 -738 824 -969 274 -137 552
-219 902 -267 175 -24 577 -24 750 -1 805 112 1386 522 1585 1120 84 253 105
530 60 802 -44 272 -118 438 -370 830 -303 471 -338 557 -444 1082 -110 544
-193 743 -391 943 -79 80 -111 104 -188 144 -90 46 -253 96 -313 96 -41 0 -36
14 15 44 l44 25 79 -47 c252 -152 477 -131 669 62 90 91 145 169 209 301 89
181 189 511 165 540 -14 17 -194 19 -375 4z m-1148 -1115 c-3 -48 -8 -89 -11
-92 -3 -2 -37 14 -76 37 -98 58 -127 44 -74 -35 33 -49 46 -59 114 -91 50 -24
65 -27 175 -26 156 1 235 24 301 88 80 76 46 92 -98 45 -52 -16 -99 -30 -103
-30 -8 0 1 166 10 180 2 4 37 1 77 -6 241 -43 419 -152 553 -339 127 -176 186
-365 284 -906 76 -418 121 -526 391 -939 212 -325 283 -455 334 -611 51 -160
61 -231 61 -444 0 -224 -10 -291 -72 -474 -197 -594 -683 -952 -1427 -1051
-208 -28 -573 -28 -790 0 -213 27 -376 63 -546 119 -544 181 -929 542 -1041
976 -30 120 -33 374 -6 505 55 259 153 482 368 837 217 357 254 422 314 548
85 175 119 265 245 640 156 464 209 588 330 769 155 231 310 337 540 370 52 7
108 14 124 15 l29 1 -6 -86z"/>
<path d="M1137 2186 c-69 -19 -127 -63 -164 -126 -29 -47 -33 -63 -33 -122 0
-86 26 -144 87 -198 206 -181 542 18 458 271 -25 73 -100 148 -174 172 -62 20
-107 21 -174 3z m223 -38 c170 -86 71 -347 -113 -297 -93 25 -149 128 -114
211 39 94 138 131 227 86z m-225 -273 c14 -13 25 -36 25 -50 0 -33 -41 -75
-73 -75 -39 0 -77 36 -77 73 0 68 77 101 125 52z"/>
<path d="M2889 2184 c-56 -17 -133 -82 -161 -137 -11 -22 -23 -66 -25 -98 -9
-97 52 -199 152 -252 32 -17 57 -22 125 -22 73 0 92 4 136 27 92 48 143 132
144 234 0 181 -185 306 -371 248z m73 -24 c44 -13 94 -66 107 -118 31 -112
-84 -223 -199 -192 -52 14 -107 69 -116 115 -15 84 14 146 86 183 49 25 68 27
122 12z m205 -282 c14 -13 23 -33 23 -50 0 -36 -40 -78 -75 -78 -14 0 -37 11
-50 25 -69 68 31 170 102 103z"/>
<path d="M2430 1728 c-206 -96 -520 -115 -694 -43 -29 12 -33 12 -44 -6 -7
-11 -12 -55 -12 -103 0 -217 88 -385 238 -454 110 -50 297 -39 415 25 89 49
161 153 186 271 20 94 10 332 -14 338 -5 1 -39 -11 -75 -28z m-22 -268 c63
-14 66 -27 23 -115 -58 -122 -161 -185 -316 -193 -145 -7 -238 34 -303 135
-50 77 -47 90 21 118 59 25 196 61 257 69 62 7 263 -1 318 -14z"/>
</g>
</svg>
