<?xml version="1.0" encoding="UTF-8"?>
<!DOCTYPE svg PUBLIC "-//W3C//DTD SVG 1.1//EN" "http://www.w3.org/Graphics/SVG/1.1/DTD/svg11.dtd">
<!-- Creator: CorelDRAW X7 -->
<svg xmlns="http://www.w3.org/2000/svg" xml:space="preserve" width="200mm" height="200mm" version="1.1" style="shape-rendering:geometricPrecision; text-rendering:geometricPrecision; image-rendering:optimizeQuality; fill-rule:evenodd; clip-rule:evenodd"
viewBox="0 0 20000 20000"
 xmlns:xlink="http://www.w3.org/1999/xlink">
 <defs>
  <style type="text/css">
   <![CDATA[
    .str0 {stroke:#332C2B;stroke-width:7.62}
    .fil0 {fill:none;fill-rule:nonzero}
   ]]>
  </style>
 </defs>
 <g id="Layer_x0020_1">
  <metadata id="CorelCorpID_0Corel-Layer"/>
  <path class="fil0 str0" d="M5044 7852l471 0c104,0 190,9 260,28 70,20 125,61 166,125 41,64 61,136 61,215 0,128 -40,225 -121,290 -81,67 -199,100 -352,100l-318 0 0 504 -167 0 0 -1262zm167 608l320 0c107,0 184,-20 230,-61 45,-40 68,-98 68,-173 0,-51 -13,-96 -38,-135 -25,-39 -57,-64 -96,-74 -39,-10 -95,-15 -168,-15l-316 0 0 458zm1377 676c-134,0 -243,-42 -324,-126 -82,-84 -122,-202 -122,-352 0,-150 39,-267 118,-351 79,-85 182,-127 310,-127 130,0 234,41 312,125 78,83 117,201 117,353l0 39 -689 0c7,105 37,184 88,235 51,51 115,76 190,76 57,0 108,-14 153,-43 46,-29 70,-70 72,-124l168 0c-12,95 -55,167 -128,218 -72,51 -161,77 -265,77zm239 -567c-13,-88 -43,-153 -89,-197 -45,-44 -102,-66 -168,-66 -65,0 -121,22 -167,65 -47,44 -76,110 -89,198l513 0zm742 567c-134,0 -243,-42 -324,-126 -82,-84 -122,-202 -122,-352 0,-150 39,-267 118,-351 79,-85 182,-127 310,-127 130,0 234,41 312,125 78,83 117,201 117,353l0 39 -689 0c7,105 37,184 88,235 51,51 115,76 190,76 57,0 108,-14 153,-43 46,-29 70,-70 72,-124l168 0c-12,95 -55,167 -128,218 -72,51 -161,77 -265,77zm239 -567c-13,-88 -43,-153 -89,-197 -45,-44 -102,-66 -168,-66 -65,0 -121,22 -167,65 -47,44 -76,110 -89,198l513 0zm828 -220c-23,-7 -56,-11 -99,-11 -83,0 -154,44 -213,130l0 646 -163 0 0 -913 163 0 0 127c68,-99 148,-148 238,-148 23,0 48,2 74,7l0 162zm1079 787c-178,0 -311,-40 -399,-120 -88,-80 -135,-182 -139,-307l161 0c9,94 48,163 117,209 70,45 154,67 253,67 94,0 169,-19 226,-58 58,-38 86,-90 86,-156 0,-70 -30,-120 -89,-152 -59,-32 -160,-63 -305,-93 -144,-31 -248,-74 -311,-128 -63,-55 -94,-127 -94,-218 0,-102 41,-186 122,-252 82,-65 191,-98 326,-98 143,0 258,33 345,99 87,66 133,160 139,280l-163 0c-17,-153 -121,-229 -314,-229 -93,0 -165,17 -216,52 -51,35 -76,82 -76,140 0,53 20,92 61,119 41,26 118,52 230,77 112,24 201,49 268,73 66,24 122,61 169,112 47,51 71,119 71,205 0,108 -44,198 -130,270 -86,72 -199,108 -338,108zm842 -819c80,-91 172,-137 273,-137 206,0 309,112 309,337l0 597 -163 0 0 -591c0,-74 -13,-128 -40,-161 -27,-32 -70,-49 -131,-49 -83,0 -166,49 -248,147l0 654 -163 0 0 -1262 163 0 0 465zm1397 557l0 -202 -111 0c-236,0 -354,64 -354,192 0,46 17,82 52,107 35,25 81,37 140,37 53,0 105,-12 155,-36 50,-24 89,-57 118,-98zm0 147c-83,76 -190,115 -320,115 -90,0 -165,-25 -224,-74 -58,-49 -88,-112 -88,-190 0,-213 184,-320 552,-320l80 0c0,-66 -4,-113 -11,-143 -7,-29 -26,-54 -57,-73 -32,-20 -82,-30 -151,-30 -145,0 -219,52 -224,155l-162 0c12,-187 144,-281 394,-281 118,0 209,23 274,70 66,46 99,137 99,273l0 591 -162 0 0 -93zm877 -672c-24,-7 -57,-11 -99,-11 -83,0 -154,44 -213,130l0 646 -163 0 0 -913 163 0 0 127c68,-99 147,-148 238,-148 22,0 47,2 74,7l0 162zm501 787c-135,0 -243,-42 -324,-126 -82,-84 -122,-202 -122,-352 0,-150 39,-267 118,-351 79,-85 182,-127 310,-127 130,0 234,41 312,125 78,83 117,201 117,353l0 39 -689 0c7,105 36,184 88,235 51,51 115,76 190,76 57,0 108,-14 153,-43 46,-29 70,-70 72,-124l168 0c-12,95 -55,167 -128,218 -72,51 -161,77 -265,77zm239 -567c-13,-88 -43,-153 -89,-197 -46,-44 -102,-66 -168,-66 -65,0 -121,22 -167,65 -47,44 -77,110 -89,198l513 0z"/>
 </g>
</svg>
