<svg xmlns="http://www.w3.org/2000/svg" width="1400" height="1400" viewBox="245 8.5 1400 1400">
  <defs>
    <style>
      .cls-1 {
        fill-rule: evenodd;
      }
    </style>
  </defs>
  <path id="Color_Fill_1" data-name="Color Fill 1" class="cls-1" d="M628.527,731.521H556V600.092H536.263V749.221h92.264v-17.7ZM656.553,653.6q-13.787,14.751-13.784,41.707,0,26.856,13.784,41.656t36.773,14.8q23.091,0,36.876-14.8t13.783-41.656q0-26.957-13.783-41.707t-36.876-14.751Q670.336,638.849,656.553,653.6Zm14.5,72.682q-8.544-10.425-8.544-30.975,0-20.649,8.544-31.077a29.013,29.013,0,0,1,44.556,0q8.545,10.428,8.545,31.077,0,20.548-8.545,30.975A29.013,29.013,0,0,1,671.048,726.282Zm148.824,6.155a41.648,41.648,0,0,1-18.31,4.272q-10.375,0-16.48-4.425t-6.1-12.665q0-22.683,41.707-22.685h13.123V720.84A35.157,35.157,0,0,1,819.872,732.437Zm13.937,16.784h19.124V679.438q0-24.109-11.6-32.349t-32.349-8.24q-44.456,0-46.59,33.265h19.124q0.813-18.312,26.449-18.311,12.207,0,17.8,3.459t6.815,8.7q1.221,5.241,1.221,16.836H824.45q-65.207,0-65.206,37.841a27.925,27.925,0,0,0,10.376,22.431q10.377,8.7,26.449,8.7,23.091,0,37.74-13.631v11.088Zm86.67-12.512q-12.311,0-19.277-10.325t-6.968-30.263q0-21.057,7.375-31.688t19.684-10.63q15.969,0,28.381,13.123V718.2q-13.122,18.516-29.195,18.514h0Zm29.195,12.512H968.8V600.092H949.674v49.54q-12.107-10.78-29.6-10.783-19.634,0-32.6,15.412t-12.97,41.86q0,25.535,11.6,40.588t32.755,15.055q18.006,0,30.823-15.462v12.919Zm66.736-107.93H997.18v107.93h19.23V641.291Zm0-41.2H997.18v20.752h19.23V600.092Zm47.5,41.2h-19.22v107.93h19.22V671.91q14.655-17.292,29.3-17.293,10.785,0,15.51,5.8t4.73,19.023v69.783h19.23v-70.6q0-39.773-36.52-39.775-17.91,0-32.25,16.175V641.291Zm184.12,0h-19.12v8.341q-12.105-10.78-29.6-10.783-19.635,0-32.61,15.412t-12.97,41.86q0,25.535,11.6,40.588t32.76,15.055q18,0,30.82-15.462v5.392q0,21.564-7.32,28.94t-20.76,7.376q-23.8,0-23.8-17.7h-19.84q0,14.954,11.75,23.8t32.1,8.85q46.995,0,46.99-52.083V641.291Zm-48.32,95.418q-12.3,0-19.27-10.325t-6.97-30.263q0-21.057,7.37-31.688t19.69-10.63q15.96,0,28.38,13.123V718.2q-13.125,18.516-29.2,18.514h0Zm101.93-8.341h-20.85v20.853h20.85V728.368Zm57.88,0h-20.85v20.853h20.85V728.368Zm57.89,0h-20.86v20.853h20.86V728.368Z"/>
</svg>
