<svg xmlns="http://www.w3.org/2000/svg" viewBox="0 0 96 120" width="40px" x="0px" y="0px"><defs><style>.cls-1{fill:white;}</style></defs><title>peer_to_peer_3</title><g data-name="Your Icons"><path class="cls-1" d="M17.64,18.93a7.55,7.55,0,1,0-7.55-7.55A7.56,7.56,0,0,0,17.64,18.93Zm0-13.1a5.55,5.55,0,1,1-5.55,5.55A5.56,5.56,0,0,1,17.64,5.83Z"/><path class="cls-1" d="M31,34.05a4.76,4.76,0,0,0,.51-4.39C29.8,25.27,26,20,17.64,20S5.48,25.27,3.79,29.66a4.73,4.73,0,0,0,4.4,6.44H27.08A4.71,4.71,0,0,0,31,34.05ZM6,32.92a2.7,2.7,0,0,1-.3-2.54c1.47-3.8,4.73-8.34,12-8.34s10.52,4.54,12,8.34a2.68,2.68,0,0,1-.29,2.54,2.7,2.7,0,0,1-2.25,1.18H8.19A2.69,2.69,0,0,1,6,32.92Z"/><path class="cls-1" d="M71,68.38a7.56,7.56,0,1,0,7.55-7.55A7.56,7.56,0,0,0,71,68.38Zm13.11,0a5.56,5.56,0,1,1-5.56-5.55A5.56,5.56,0,0,1,84.07,68.38Z"/><path class="cls-1" d="M92.37,86.66C90.68,82.27,86.9,77,78.51,77s-12.16,5.23-13.85,9.62a4.74,4.74,0,0,0,4.41,6.44H88a4.74,4.74,0,0,0,4.41-6.44ZM90.2,89.92A2.67,2.67,0,0,1,88,91.1H69.07a2.72,2.72,0,0,1-2.54-3.72C68,83.58,71.26,79,78.51,79s10.53,4.54,12,8.34A2.7,2.7,0,0,1,90.2,89.92Z"/><path class="cls-1" d="M29.89,11.76h0a1.21,1.21,0,0,0,.2.3l0,0,4.34,4.34A1,1,0,0,0,35.86,15l-2.63-2.63H77.51V54.87a1,1,0,0,0,2,0V11.38a1,1,0,0,0-1-1H33.23l2.63-2.64a1,1,0,0,0-1.41-1.41l-4.34,4.34a1,1,0,0,0-.2.3.3.3,0,0,0,0,.1,1,1,0,0,0,0,.25.31.31,0,0,0,0,.1.85.85,0,0,0,.06.31S29.88,11.75,29.89,11.76Z"/><path class="cls-1" d="M60.44,86.15h0a1,1,0,0,0-.2-.29s0,0,0,0l-4.34-4.35a1,1,0,1,0-1.42,1.42l2.64,2.63H17.81V41a1,1,0,1,0-2,0V86.53a1,1,0,0,0,1,1H57.1l-2.64,2.64a1,1,0,0,0,.71,1.7,1,1,0,0,0,.71-.29l4.34-4.34a1,1,0,0,0,.2-.3l0-.1a.69.69,0,0,0,0-.24s0-.07,0-.1a1.65,1.65,0,0,0-.06-.32A0,0,0,0,1,60.44,86.15Z"/></g></svg>